<svg width="16" height="16" viewBox="0 0 16 16" fill="none" xmlns="http://www.w3.org/2000/svg">
<path fill-rule="evenodd" clip-rule="evenodd" d="M9.08503 7.99987L15.775 1.30992C16.0747 1.01024 16.0747 0.524427 15.775 0.224754C15.4753 -0.0749181 14.9895 -0.0749181 14.6898 0.224754L7.99987 6.91471L1.30992 0.225777C1.01024 -0.0738953 0.524427 -0.0738953 0.224754 0.225777C-0.0749181 0.52545 -0.0749181 1.01127 0.224754 1.31094L6.91471 8.0009L0.225777 14.6898C-0.0738953 14.9895 -0.0738953 15.4753 0.225777 15.775C0.376125 15.9243 0.571474 16 0.767847 16C0.964219 16 1.16059 15.9253 1.30992 15.775L7.99987 9.08503L14.6898 15.775C14.8402 15.9243 15.0355 16 15.2319 16C15.4283 16 15.6246 15.9253 15.774 15.775C16.0736 15.4753 16.0736 14.9895 15.774 14.6898L9.08503 7.99987Z" fill="#717E9B"/>
</svg>
