<svg width="16" height="14" viewBox="0 0 16 14" fill="none" xmlns="http://www.w3.org/2000/svg">
<path d="M15.8682 6.00389L13.8682 2.5039C13.6902 2.19237 13.3589 2 13 2H11.5V0.999998C11.5 0.447749 11.0523 -3.43322e-08 10.5 -3.43322e-08H5.50004C4.94779 -3.43322e-08 4.50005 0.447749 4.50005 0.999998V2H3.00005C2.64117 2 2.30986 2.19237 2.13189 2.5039L0.131899 6.00389C-0.0451002 6.31345 -0.0438815 6.69358 0.135087 7.00195C0.314055 7.3103 0.643648 7.50001 1.00008 7.50001H2.50008V13C2.50008 13.5522 2.94783 14 3.50008 14H8.50007V9.00001H11.5001V14H12.5001C13.0523 14 13.5001 13.5522 13.5001 13V7.50001H15.0001C15.3565 7.50001 15.6861 7.31033 15.8651 7.00195C16.044 6.69358 16.0452 6.31345 15.8682 6.00389ZM7.00004 11.5H4.50005V8.99998H7.00004V11.5Z" fill="#A9C4FF"/>
</svg>
