<svg width="114" height="35" viewBox="0 0 114 35" fill="none" xmlns="http://www.w3.org/2000/svg">
<path d="M1.13232 11.4081C1.13232 10.678 1.81172 9.67406 1.81172 9.71969C1.81172 9.49153 2.08347 9.35463 2.12877 9.21773C2.10417 9.19312 2.08826 9.16106 2.08347 9.12647C2.08347 8.35072 3.53285 7.34681 3.53285 7.34681C5.1181 5.20209 5.61632 5.20209 6.34101 4.47197C6.3863 4.47197 6.43159 4.5176 6.47689 4.5176C6.89821 4.26507 7.30638 3.99092 7.6998 3.69622C7.79038 3.28553 8.87741 2.9661 8.78683 3.01174C9.87385 3.01174 10.3268 2.05346 11.0515 2.05346C11.1873 1.77966 11.6403 1.77966 11.912 1.64276C11.9464 1.64759 11.9782 1.66362 12.0026 1.6884C12.0479 1.6884 13.0897 1.36897 15.4449 0.547589C15.4446 0.535518 15.4467 0.52351 15.4511 0.512295C15.4556 0.501081 15.4622 0.490894 15.4707 0.482356C15.4792 0.473818 15.4893 0.467107 15.5004 0.462632C15.5116 0.458157 15.5235 0.45601 15.5355 0.456324C15.5781 0.478699 15.6239 0.494101 15.6713 0.501955C15.7057 0.497133 15.7375 0.481104 15.7619 0.456324C16.079 2.17592e-07 18.0266 2.08888e-07 18.8871 2.08888e-07C20.0648 2.08888e-07 21.8312 0.593221 21.8312 0.684485C22.4653 0.684485 23.2353 1.64276 23.3711 1.73403C23.5523 1.91656 24.1411 2.32725 24.277 2.50978C24.8967 3.19114 25.3605 4.00113 25.6358 4.88266C25.7838 5.65965 25.9959 6.42284 26.2699 7.16428C26.3152 7.66623 26.4511 8.44198 26.4511 9.12647C26.4265 9.15108 26.4106 9.18314 26.4058 9.21773C26.4058 9.21773 26.4964 9.26336 26.4964 9.309L26.4511 9.35463C26.4852 9.44164 26.5006 9.53496 26.4964 9.62842C26.4058 9.71969 26.134 13.0052 25.8623 13.8266C25.6358 13.8266 25.6811 14.9674 25.4546 14.9674V14.9218C25.4546 16.017 24.8205 16.6102 24.7752 16.6102L24.8205 16.5645C24.8205 16.6558 24.7752 16.8383 24.7299 16.8383L24.6846 16.7927C24.6846 17.6141 23.4164 19.3937 23.3711 19.3937C22.42 20.8083 22.0576 21.3559 22.0576 21.4472C22.0624 21.4818 22.0783 21.5138 22.1029 21.5385C21.4688 22.1773 21.4688 22.5424 21.3783 22.5424C21.333 22.5424 21.333 22.5424 21.2877 22.4967C21.2877 22.5424 21.333 22.5424 21.333 22.588C20.88 23.0443 20.4271 24.0482 20.1101 24.1395C20.1346 24.1641 20.1506 24.1962 20.1553 24.2308C16.9396 27.4707 18.2078 27.2425 15.3543 29.4329C15.309 29.4785 15.3543 29.5241 15.2637 29.5241C14.4484 29.5241 14.0861 30.9387 13.8143 30.9387C13.7497 30.9178 13.6886 30.887 13.6332 30.8475C13.4973 31.1669 12.8632 31.4407 11.8667 32.3077C11.8215 32.3077 11.7762 32.2621 11.7309 32.2621C11.5044 32.7184 9.19446 34.0417 9.05858 33.9961L9.10388 33.9505C8.24331 34.2699 8.19802 34.4981 6.52218 34.8175C6.15984 34.8175 5.61632 35 5.1181 35C3.48755 35 1.72113 34.498 1.13232 33.5854C1.13232 33.5398 1.17762 33.4941 1.17762 33.4485C1.15319 33.4733 1.12137 33.4893 1.08703 33.4941C0.588808 33.4941 4.31947e-09 31.0756 4.31947e-09 31.03C4.31947e-09 30.3911 0.181172 29.6154 0.724687 29.6154C0.724687 29.5698 1.17762 30.163 1.58525 30.163C1.58525 30.2542 1.53996 30.4824 1.53996 30.8018C1.53996 31.3494 1.53996 32.1708 2.80816 32.1708C4.93693 32.1708 5.48044 31.4863 5.48044 31.3951C7.06569 30.7562 7.11099 30.8018 8.06214 29.8435C8.60565 29.296 8.60565 30.0717 11.912 26.7405C11.9464 26.7454 11.9782 26.7614 12.0026 26.7862C12.2744 26.7862 13.9049 24.9153 14.1767 24.5502C14.3126 24.2764 15.8978 22.4055 15.9884 22.4055C16.079 22.2686 17.4831 20.4433 17.5737 20.352C17.5981 20.3768 17.6299 20.3928 17.6642 20.3977C17.8454 20.3064 18.3889 19.1199 18.8871 18.618C18.8625 18.5934 18.8466 18.5613 18.8419 18.5267C18.8419 18.3898 19.023 18.4811 19.023 18.2073C19.0683 18.2073 19.1136 18.2529 19.1589 18.2529L19.2042 18.2073C19.1796 18.1827 19.1637 18.1506 19.1589 18.116C19.1589 17.751 19.8836 16.7471 20.0195 16.7471C20.0315 16.7471 20.043 16.7519 20.0515 16.7604C20.06 16.769 20.0648 16.7806 20.0648 16.7927C20.0648 16.7471 20.0195 16.7471 20.0195 16.7014C20.0195 15.5606 20.7442 15.9713 20.7442 15.6063C21.8312 14.8305 21.2877 13.5984 22.1935 12.6858C22.8729 11.2256 23.0088 10.678 23.0088 10.3585C23.0088 10.176 22.9635 10.0847 22.9635 9.99348C22.9635 9.81095 23.0088 9.62842 23.2806 9.21773C23.2806 9.1721 23.19 9.12647 23.19 9.08083C23.3555 8.79004 23.4341 8.45729 23.4164 8.12256C23.3711 8.12256 23.3711 8.12256 23.3711 8.07692C23.3711 7.89439 23.507 7.6206 23.507 7.4837C23.507 7.43807 23.4164 7.39244 23.4164 7.39244C23.507 7.30117 23.507 7.11864 23.507 6.84485V6.29726C23.507 5.84094 23.4617 3.97001 22.737 3.46806C22.6917 3.46806 22.6012 3.51369 22.5559 3.51369V3.37679C22.5314 3.40157 22.4996 3.4176 22.4653 3.42242C22.42 3.42242 22.42 3.37679 22.42 3.28553C22.3747 3.28553 22.3294 3.33116 22.2841 3.33116C21.9218 3.01173 20.6536 2.87484 20.1101 2.87484C19.1589 2.87484 18.4342 3.2399 17.3925 3.2399C14.0861 3.2399 13.452 4.74576 13.452 5.97784C13.4568 6.01243 13.4727 6.04449 13.4973 6.0691C13.1349 6.34289 12.7273 7.66623 12.7273 7.84876L12.7726 7.80313C12.5008 8.62451 12.2744 8.53325 12.2744 8.94394C12.2744 8.98957 12.3197 9.0352 12.3197 9.08083C12.0479 9.08083 11.5497 10.7692 11.595 10.7236C11.595 10.7692 11.5044 10.7236 11.5044 10.8149C11.4788 10.9722 11.4332 11.1256 11.3685 11.2712C11.3685 11.4081 11.1421 12.412 10.9609 12.412C10.9156 12.412 10.9156 12.3664 10.8703 12.3664C9.5568 16.1995 9.37563 15.7888 9.37563 16.6102C9.37563 16.6558 9.42093 16.7014 9.42093 16.7471C9.33034 16.7927 8.69624 18.4355 8.46977 19.6219V19.5763C7.92626 20.9909 8.01685 21.1734 7.42804 23.2725V23.5463C7.41603 23.5463 7.4045 23.5415 7.39601 23.5329C7.38752 23.5244 7.38274 23.5128 7.38274 23.5007C6.70335 25.4628 6.61277 27.8357 6.47689 30.2542C6.46487 30.2542 6.45335 30.2494 6.44486 30.2409C6.43637 30.2323 6.43159 30.2207 6.43159 30.2086C6.25042 30.7562 6.11454 30.8931 6.06925 30.8931C4.71046 30.8931 3.62343 29.296 3.62343 28.9309C3.66155 28.8993 3.70997 28.883 3.75931 28.8853C3.71402 28.6571 3.53285 28.0183 3.53285 27.927C3.53285 27.8357 3.62343 27.8814 3.62343 27.7901C3.46 27.3493 3.35345 26.8892 3.30638 26.4211C3.3184 26.4211 3.32992 26.4163 3.33841 26.4078C3.3469 26.3992 3.35168 26.3876 3.35168 26.3755C3.2158 26.2842 3.1705 25.189 3.1705 24.7784C3.1705 23.4094 3.48755 21.9948 3.62343 20.8996C3.57814 20.8996 3.57814 20.8083 3.57814 20.7627C3.57814 20.6714 3.57814 20.4889 3.8499 19.7132C4.57458 18.2986 4.03107 18.8462 4.75576 16.3364C5.1181 15.9713 5.16339 14.6936 5.34456 14.5111H5.29927C5.29927 14.1004 8.10743 6.57106 8.51507 6.57106C8.56036 6.57106 8.56036 6.57105 8.56036 6.61669C7.51862 7.39244 7.29216 7.52933 7.29216 7.52933C7.31659 7.50455 7.34841 7.48852 7.38274 7.4837C7.38274 7.4837 7.33745 7.57497 7.15628 7.57497C6.74864 7.57497 3.80461 10.9061 3.66873 11.043C3.35168 11.545 2.89875 12.2751 2.26465 12.6858C1.99289 12.6835 1.13232 12.0013 1.13232 11.4081ZM9.42093 3.55932C9.37563 3.55932 9.33034 3.65059 9.28505 3.65059C9.23975 3.65059 9.19446 3.60495 9.14917 3.60495C9.14917 3.69622 9.14917 3.74185 9.10388 3.74185C9.07945 3.71707 9.04763 3.70104 9.01329 3.69622C8.72672 3.91683 8.42389 4.11514 8.10743 4.28944C8.06214 4.28944 8.01685 4.24381 7.97155 4.24381C7.97155 4.28944 7.97155 4.38071 7.92626 4.38071C7.90183 4.35592 7.87001 4.33989 7.83567 4.33507C7.83567 4.33507 4.93693 6.0691 4.07636 7.66623C3.89519 7.84876 3.57814 7.98566 3.57814 8.07692C3.57814 8.12256 3.62343 8.16819 3.62343 8.21382C2.26465 9.58279 1.9476 10.3129 1.99289 10.3585C1.99289 10.4042 2.03818 10.4498 2.03818 10.4954C2.03818 10.4954 1.76642 10.7236 1.76642 10.8605C1.76801 10.8842 1.77807 10.9065 1.79472 10.9232C1.81138 10.94 1.83351 10.9502 1.85701 10.9518C2.44582 9.44589 3.07992 9.12647 3.03463 9.1721C3.94048 7.71187 3.44226 8.39635 6.25042 5.84094C7.88097 4.74576 7.60921 4.56323 7.97155 4.5176C7.97155 4.3807 9.05858 3.92438 9.05858 3.87875C9.23975 3.87875 9.01329 3.83312 9.33034 3.74185C9.33034 3.55932 10.1456 3.55932 10.1456 3.2399C10.1423 3.20486 10.1262 3.17232 10.1003 3.14863C9.91915 3.33116 9.5568 3.42243 9.46622 3.55932H9.42093ZM9.96444 5.97784C9.73798 6.11473 9.42093 7.39244 9.33034 7.39244V7.34681C8.37919 9.309 8.83212 8.98957 8.37919 9.44589C8.01685 10.5411 7.6545 10.7692 7.6545 11.2256C7.6545 11.2377 7.65927 11.2493 7.66777 11.2578C7.67626 11.2664 7.68778 11.2712 7.6998 11.2712C7.21941 12.2009 6.83978 13.18 6.56747 14.1917C4.484 21.4472 4.16695 21.5841 4.16695 25.1434C4.16695 24.9153 4.61988 22.3598 4.71046 21.9492C4.89163 20.6714 4.93693 20.4889 4.93693 20.4889C4.93693 20.4889 5.61632 18.983 5.61632 18.7093C5.61741 18.6308 5.60197 18.5531 5.57103 18.4811V18.5267C7.38275 11.4537 7.51862 13.8722 7.51862 12.412V12.4576C7.60482 12.1914 7.7108 11.9321 7.83567 11.6819C7.83567 11.2256 8.83212 9.62842 8.83212 9.08083C9.42093 7.89439 10.1003 6.61669 10.3268 5.65841C10.1456 5.65841 10.055 5.84094 10.0097 5.9322C10.0097 5.93819 10.0086 5.94413 10.0063 5.94967C10.004 5.9552 10.0007 5.96023 9.99647 5.96447C9.99226 5.96871 9.98727 5.97207 9.98177 5.97436C9.97628 5.97666 9.97039 5.97784 9.96444 5.97784ZM8.24331 31.1669C8.26774 31.1917 8.29956 31.2077 8.3339 31.2125C8.968 31.2125 9.46622 30.4824 9.46622 30.3911C10.3268 30.3911 10.3721 29.6154 10.6438 29.6154C11.2326 29.4329 11.8215 28.6571 12.1385 28.3377C14.2969 26.6998 16.152 24.6917 17.6189 22.4055C19.7024 19.6675 19.7477 19.8957 19.7477 19.5763C19.7477 19.5306 19.7024 19.4394 19.7024 19.3937C19.7024 19.3937 20.6536 17.7966 20.7442 17.7966C20.3818 17.7966 20.1101 18.6636 20.1101 18.7549C20.1221 18.7549 20.1336 18.7501 20.1421 18.7415C20.1506 18.733 20.1553 18.7214 20.1553 18.7093C18.2078 20.6714 19.3401 19.8501 18.3436 21.1734C15.7166 23.8201 16.5772 24.0939 15.3543 24.7784C14.5391 25.8668 13.5612 26.8212 12.4556 27.6076C12.4556 27.6076 11.0515 28.9309 11.0062 28.9309C10.9609 28.9309 10.9156 28.8853 10.8703 28.8853C8.46978 31.3038 8.06214 30.2086 8.06214 30.9844H8.10743C8.06214 30.9844 8.01685 30.9387 7.97155 30.9387C7.97155 31.03 7.97155 31.03 7.88097 31.03C7.11099 31.03 6.83923 31.8057 6.74864 31.8057V31.7145C6.76066 31.7145 6.77218 31.7193 6.78067 31.7278C6.78917 31.7364 6.79394 31.748 6.79394 31.7601H6.74864C6.72421 31.7353 6.69239 31.7193 6.65806 31.7145C6.65806 31.7601 6.65806 31.8514 6.61277 31.8514C6.57843 31.8466 6.54661 31.8305 6.52218 31.8057C6.51017 31.8057 6.49865 31.8105 6.49015 31.8191C6.48166 31.8277 6.47689 31.8393 6.47689 31.8514L6.52218 31.897C6.3863 31.897 5.29927 32.3533 5.07281 32.5815C5.34778 32.558 5.62042 32.5123 5.88808 32.4446C7.47333 32.0316 8.06214 31.3471 8.24331 31.1646V31.1669ZM11.6403 2.60104C11.6403 2.64668 11.6403 2.64667 11.6856 2.69231C11.7309 2.60104 12.0932 2.55541 12.0932 2.46415C12.0932 2.41851 12.0932 2.41851 12.0479 2.37288C12.0026 2.50978 11.6403 2.50978 11.6403 2.60104ZM13.2708 2.00782C13.2708 2.00782 13.2708 1.96219 13.1802 1.96219C12.9538 2.19035 12.5008 2.09909 12.3197 2.37288C12.6367 2.28162 12.9538 2.14472 13.2255 2.05346C13.2708 2.05346 13.2708 2.05345 13.2708 2.00782ZM21.1971 17.0209L21.1518 17.0665C21.0159 17.0665 20.7442 17.6597 20.7894 17.6597C20.9253 17.6597 20.88 17.5228 20.9253 17.4316C20.9253 17.3836 21.1971 17.1098 21.1971 17.0186V17.0209Z" fill="#011627"/>
<path d="M44.0698 18.3419C43.9792 18.8438 43.9339 19.2545 42.4846 20.7148C42.0316 20.9429 40.854 22.2206 38.0006 25.278V25.2324C38.0006 25.2324 37.91 25.8712 36.9135 26.145C36.8682 26.145 36.8682 26.3275 36.7777 26.3275C36.7433 26.3227 36.7115 26.3067 36.6871 26.2819C36.5965 26.4188 36.5965 26.4644 36.5965 26.4644C36.5965 26.4188 36.5965 26.3732 36.5512 26.3732C36.1436 26.3732 36.7777 26.2363 33.426 28.6091C33.3916 28.6045 33.3597 28.5884 33.3354 28.5635L33.2901 28.6091C33.2901 28.6212 33.2949 28.6329 33.3034 28.6414C33.3119 28.65 33.3234 28.6548 33.3354 28.6548C33.0636 28.6548 33.2448 28.746 32.973 28.746C32.973 28.7917 33.0183 28.7917 33.0183 28.8373C32.7466 28.8373 32.8825 28.9286 32.7919 28.9286C32.7575 28.9237 32.7257 28.9077 32.7013 28.8829C32.7013 29.0655 32.4748 28.9286 32.4748 29.0198L32.5201 29.0655H32.4295C32.2937 29.0655 30.8443 29.75 29.9384 29.75C28.9578 29.7063 28.0323 29.281 27.3567 28.5635C27.3567 28.5635 25.9979 27.5596 25.545 26.8295L25.6356 26.7839C25.6356 26.7839 25.0015 26.8295 25.0015 25.0955C25.0358 25.0906 25.0676 25.0746 25.0921 25.0498C25.0801 25.0498 25.0685 25.045 25.0601 25.0365C25.0516 25.0279 25.0468 25.0163 25.0468 25.0042C25.0588 25.0042 25.0703 24.9994 25.0788 24.9908C25.0873 24.9823 25.0921 24.9707 25.0921 24.9586C25.0559 24.8539 25.0256 24.7473 25.0015 24.6391C25.0015 24.5022 25.0921 24.5022 25.0921 24.411C25.0015 24.411 25.0015 24.3197 25.0015 24.1828C25.0015 24.0915 25.0015 24.0003 25.0921 24.0003C25.0921 23.9546 25.0015 23.909 25.0015 23.8634C25.0015 23.8178 25.0921 23.8177 25.0921 23.7721C25.0801 23.7724 25.0682 23.7703 25.057 23.7658C25.0459 23.7613 25.0358 23.7546 25.0273 23.7461C25.0189 23.7375 25.0122 23.7274 25.0078 23.7161C25.0033 23.7049 25.0012 23.6929 25.0015 23.6809C25.0358 23.676 25.0676 23.66 25.0921 23.6352C25.0921 23.5896 25.0468 23.544 25.0468 23.4983C25.106 22.8642 25.2274 22.2375 25.4091 21.6274C25.3845 21.6028 25.3686 21.5707 25.3638 21.5361C25.3638 20.4866 25.9979 20.4866 26.4056 18.7982C26.4056 18.6613 26.315 18.1593 27.3567 17.1098C27.3321 17.0852 27.3162 17.0531 27.3114 17.0185V16.9729C27.3114 16.985 27.3162 16.9966 27.3247 17.0052C27.3332 17.0137 27.3447 17.0185 27.3567 17.0185C27.402 17.0185 27.5379 16.9273 27.7644 16.4253C27.7644 16.0603 28.4438 15.9234 29.1684 14.6913C29.1684 14.7034 29.1637 14.715 29.1552 14.7236C29.1467 14.7321 29.1352 14.7369 29.1232 14.7369C29.0779 14.6457 30.6631 13.1398 32.4295 12.6378C32.4175 12.6378 32.406 12.633 32.3975 12.6245C32.389 12.6159 32.3842 12.6043 32.3842 12.5922C32.3842 12.5009 32.5654 12.4097 33.6071 12.4097C34.173 12.4151 34.736 12.4918 35.283 12.6378C35.6 12.7747 36.9588 13.3223 37.2306 13.3223H37.1853C37.2759 13.3223 38.4082 13.6874 38.4082 14.7825C38.4177 14.9746 38.3704 15.1652 38.2723 15.3301C38.4082 15.6496 38.6347 16.0146 38.6347 16.5166C38.6347 17.2923 38.2723 17.3836 37.7741 18.8895C37.6835 18.8895 37.0494 19.5283 37.0494 19.939C37.0494 19.9846 37.0947 20.0303 37.0947 20.0759C36.9135 20.0759 36.4606 21.3536 35.8718 21.3536C35.8265 21.3536 35.7812 21.308 35.7359 21.308C35.6906 21.3992 35.5547 21.4449 35.5547 21.5361C35.5595 21.5707 35.5754 21.6028 35.6 21.6274C35.2335 21.7973 34.9087 22.0466 34.6489 22.3575C34.5583 22.3575 33.5166 23.2702 32.5201 23.2702C31.6143 23.2702 31.3878 22.7682 31.0255 22.5857L31.0707 22.6313C30.6928 22.3305 30.344 21.9944 30.029 21.6274C29.284 23.3234 28.8984 25.1573 28.8967 27.012C28.8967 27.1945 28.942 27.4227 29.2137 27.4227C29.259 27.4227 29.3949 27.1033 30.4819 27.1033C30.7186 26.9219 31.0011 26.8112 31.2972 26.7839C31.2972 26.7382 31.2519 26.7382 31.2519 26.6926C31.6596 26.4188 32.5201 26.0994 32.5201 26.0537H32.4295C32.4748 26.0537 32.5201 26.0994 32.5654 26.0994C32.656 26.0994 32.6107 25.9168 32.7919 25.9168C32.9278 25.9168 34.196 24.7304 34.7395 24.7304C34.7395 24.6848 34.6942 24.6848 34.6942 24.6391C34.6942 24.6391 36.2341 23.544 36.4606 23.3614C36.5512 23.2702 38.0006 22.3119 38.0006 21.8556C38.0459 21.8556 38.0911 21.9012 38.1364 21.9012C38.4082 21.9012 39.2688 20.6691 39.5858 20.441C39.6201 20.4458 39.652 20.4618 39.6764 20.4866C39.6311 20.4866 40.854 19.3458 41.941 18.2506C43.2545 16.9273 42.2581 17.703 42.8469 17.703C43.0174 17.7305 43.1844 17.7764 43.3451 17.8399C43.7528 17.8855 43.8433 18.0681 44.0698 18.3419ZM30.029 15.8777C30.8443 15.0563 31.7954 13.8243 32.2031 13.8243C32.2031 13.6417 32.4748 13.733 32.4748 13.6417C32.4505 13.6168 32.4186 13.6008 32.3842 13.5961C32.2031 13.7786 31.2519 14.5544 30.9349 14.5544C30.9229 14.5544 30.9113 14.5496 30.9028 14.541C30.8943 14.5325 30.8896 14.5209 30.8896 14.5088C30.8896 14.6 28.9873 15.7865 27.4473 19.0264C27.2661 19.3914 26.4962 20.806 26.4962 21.7187V21.6274C26.4962 22.0837 26.2244 22.8138 26.2697 22.8595C26.2244 22.8595 27.1756 20.0303 27.9908 18.6157C28.4438 17.7943 28.3532 17.5661 30.029 15.8777ZM32.2937 17.7943C32.2816 17.7943 32.2701 17.7895 32.2616 17.7809C32.2531 17.7724 32.2484 17.7608 32.2484 17.7487H32.2937C32.2937 17.7943 31.7501 18.1137 30.7084 20.1215C30.7087 20.1733 30.7198 20.2245 30.7411 20.2717C30.7623 20.3189 30.7931 20.3611 30.8315 20.3955C30.87 20.4299 30.9152 20.4558 30.9642 20.4715C31.0132 20.4872 31.0649 20.4923 31.116 20.4866C31.2519 20.4866 31.2066 20.3041 31.2972 20.3041C31.9313 19.7565 32.3389 20.2128 34.196 17.9312C34.196 17.9433 34.1912 17.9549 34.1827 17.9634C34.1742 17.972 34.1627 17.9768 34.1507 17.9768C34.1507 17.9768 34.6942 16.6535 35.0565 16.6535C35.0319 16.6289 35.016 16.5968 35.0112 16.5622C35.1018 16.5622 35.8718 15.5583 35.8718 15.102C35.1471 15.4214 34.8301 15.5583 34.7395 15.6496C34.7395 15.6952 33.1995 16.5622 32.7013 17.3836C32.5201 17.4749 32.3389 17.7943 32.2937 17.7943ZM36.0077 16.334C35.8718 16.334 35.0565 17.3836 35.0565 18.0681C35.0565 18.3875 35.2377 17.9768 33.1542 20.0759L33.1995 20.0303C33.1995 20.0303 32.5201 20.6691 32.2937 20.6691C32.2484 20.6691 32.2484 20.6691 32.2484 20.7148C32.2484 20.7604 32.2484 20.7604 32.3389 20.7604C34.7395 19.3001 34.7848 18.6613 35.3736 18.0681V18.1137C35.4189 18.1137 35.5547 17.3836 35.9171 17.2011C35.8925 17.1764 35.8766 17.1444 35.8718 17.1098C35.8718 17.0642 35.9171 17.1098 36.0077 16.8816H35.9171C36.1338 16.7733 36.3138 16.6029 36.4347 16.3918C36.5556 16.1808 36.6119 15.9384 36.5965 15.6952C36.5721 15.6704 36.5402 15.6544 36.5059 15.6496C36.3332 15.8624 36.1815 16.0916 36.053 16.334H36.0077ZM39.0423 21.8556V21.8099C38.9517 21.8099 37.8647 22.4488 36.5059 24.1372C37.2476 23.6205 37.931 23.0238 38.5441 22.3575C40.7181 20.1672 38.997 22.2663 41.8958 19.3458C41.8958 19.2545 41.0805 20.0303 39.0423 21.8556Z" fill="#011627"/>
<path d="M51.4527 13.6875C51.4364 14.0138 51.3754 14.3362 51.2716 14.6457C50.5922 15.4215 48.6899 18.1138 48.6899 19.8478C48.6899 19.9847 48.6899 20.076 48.7352 20.076C48.554 20.076 47.6028 19.8935 47.5123 19.3459C47.0593 19.3002 47.0593 16.973 47.014 16.8817C47.0593 16.7448 47.0593 16.6079 47.1046 16.471C47.014 16.5167 45.4288 18.4789 45.0664 18.4789C44.6135 18.4789 44.1606 20.3954 44.1606 20.6236C44.1606 21.7188 44.84 21.81 45.2023 22.9965C45.2929 23.1334 45.3382 23.2703 45.4288 23.4072C45.8364 25.0499 47.1046 26.9665 47.1046 29.3394C47.1046 31.0734 46.4252 32.6249 43.8435 32.6249C43.4359 32.6249 43.0735 32.5336 42.5753 32.5336C42.4847 32.5336 42.3489 32.5792 42.2583 32.5792C40.2201 32.3511 39.4501 31.119 39.4954 31.119C39.4048 30.9821 38.816 30.3889 38.816 30.252C38.816 30.2064 38.9066 30.1607 38.9066 30.1607C38.3631 29.5675 38.2725 29.385 38.2725 29.2937C38.2725 29.2481 38.3631 29.2025 38.3631 29.1568C38.3631 29.0656 37.9102 28.1073 37.9102 27.9704C38.0007 27.3315 39.9483 26.282 39.9483 26.2364C40.3956 25.9414 40.8651 25.682 41.3524 25.4606C40.9091 26.5005 40.6633 27.615 40.6277 28.7461C40.6277 28.9743 40.673 29.1112 40.8089 29.1112C40.8335 29.1142 40.8584 29.1116 40.8819 29.1037C40.9054 29.0958 40.9269 29.0828 40.9448 29.0656C41.4553 29.133 41.9699 29.1635 42.4847 29.1568C43.6624 29.1568 43.2547 28.883 43.5265 28.883L43.4812 28.8374V28.883C43.6624 28.883 44.5229 28.1529 44.5682 27.651C44.5682 27.651 44.4776 27.6053 44.4776 27.5597H44.5682C44.5682 25.6888 43.7076 25.1412 43.7076 23.9547C43.3 23.0877 43.1641 22.9965 43.1641 22.9965L43.2094 23.0421C43.241 23.0038 43.2572 22.9549 43.2547 22.9052C43.2547 22.7227 42.8471 22.4032 42.8471 22.1751C42.8519 22.1405 42.8678 22.1084 42.8924 22.0838H42.8018C42.8074 22.0355 42.8228 21.9889 42.8471 21.9469C42.8018 21.9925 41.7148 19.6653 41.6242 19.3915H41.6695C41.4896 18.9419 41.3973 18.4616 41.3977 17.9769C41.3977 16.9274 41.8506 16.5167 41.9412 16.471C41.9412 16.4254 41.8959 16.4254 41.8506 16.4254C42.7565 14.2807 43.8888 14.3719 43.9341 14.0525C43.9794 14.0525 44.0247 14.1438 44.0247 14.1438C44.07 14.1438 44.07 14.0525 44.07 13.9156C44.1153 13.9156 44.1153 13.9613 44.1606 13.9613C44.735 13.6279 45.2804 13.2463 45.7911 12.8204C45.8364 12.8204 45.8364 12.8661 45.8817 12.9117C45.927 12.9117 45.9723 12.7748 46.0176 12.7292C46.7876 12.2729 47.2858 12.0903 47.9652 12.0903C48.7352 12.0903 51.3622 12.2729 51.3622 13.4593C51.4074 13.5528 51.4527 13.5962 51.4527 13.6875ZM40.5824 26.5101C40.356 26.5101 39.1784 27.4684 39.1784 27.5597L39.2236 27.651C39.0425 27.7879 38.8613 27.9248 38.8613 28.1073C38.8613 28.1529 38.8613 28.1985 38.9066 28.1985C39.0878 27.8791 39.4048 27.651 39.586 27.4228C39.9332 27.1358 40.2658 26.8311 40.5824 26.5101ZM47.0593 13.1855C47.0473 13.1855 47.0358 13.1903 47.0273 13.1989C47.0188 13.2074 47.014 13.219 47.014 13.2311C46.9687 13.2311 46.9687 13.2311 46.9687 13.1855C46.8329 13.2768 46.7876 13.2311 45.927 13.7331C45.8364 13.8244 45.8817 13.87 45.7911 13.87C45.1117 13.87 43.3 16.0147 43.2547 16.0603L43.2094 16.106C43.2094 16.1516 43.2547 16.1972 43.2547 16.2429C43.1641 16.3341 42.8471 16.5623 42.8471 16.6536C42.8471 16.6992 42.8924 16.6992 42.8924 16.7448C42.8876 16.7794 42.8717 16.8115 42.8471 16.8361V16.8817C43.5732 15.9598 44.41 15.1321 45.3382 14.4176C46.8329 13.3247 47.0593 13.1855 47.0593 13.1855ZM44.7041 29.1568L44.0247 29.6131C44.07 29.6588 44.1153 29.6588 44.1606 29.7044C44.4323 29.7044 44.7494 29.5675 44.7494 29.2937C44.7525 29.2689 44.7501 29.2438 44.7422 29.2201C44.7344 29.1964 44.7213 29.1748 44.7041 29.1568ZM47.7387 17.7031C47.8184 16.9806 48.0014 16.2736 48.2822 15.604C47.6481 16.0603 47.6028 16.8361 47.6028 17.1099C47.6028 17.2468 47.6481 17.2468 47.6481 17.2468C47.6964 17.3947 47.7269 17.5479 47.7387 17.7031Z" fill="#011627"/>
<path d="M67.9392 18.8438L67.9845 18.8894C67.0787 19.3457 67.5769 19.6652 66.9881 20.2584C66.671 21.2623 66.8069 20.4409 66.0822 21.9011C66.0822 21.9011 65.3122 22.3575 65.3122 23.1332C65.3122 24.0459 65.0405 22.7682 64.3611 24.8216C63.9082 25.2779 63.8176 25.4605 63.8176 25.5974C63.8176 25.7343 63.8629 25.7799 63.8629 25.9168V25.8712C63.727 25.8712 62.8664 28.0615 62.4588 28.0615C62.4588 28.4266 60.9641 30.5257 60.0583 30.5257C59.6506 30.5257 59.0618 29.8412 58.473 29.248C58.473 29.248 57.3407 28.1984 57.3407 27.9246C57.3455 27.89 57.3614 27.858 57.386 27.8334C57.398 27.8334 57.4095 27.8382 57.418 27.8467C57.4265 27.8553 57.4313 27.8669 57.4313 27.879C57.4313 27.879 56.9784 27.8334 56.9784 27.012L56.9331 27.0576C56.9331 27.0576 56.7972 26.51 56.7066 26.0081C56.7066 25.0498 56.7066 24.3197 56.9331 23.5439C56.8878 23.5439 56.1631 24.0002 55.3025 25.2323H55.2572C55.2692 25.2323 55.2808 25.2371 55.2892 25.2457C55.2977 25.2542 55.3025 25.2658 55.3025 25.2779C55.3025 25.4148 54.5778 26.0537 54.3967 26.2362C54.3967 26.2819 54.3967 26.4188 54.3514 26.4188C54.3269 26.394 54.2951 26.3779 54.2608 26.3731V26.4644C54.1702 26.4644 53.7626 27.6508 52.5396 27.6508C51.6791 27.6508 51.3167 26.9663 50.3203 25.7799C50.3203 25.8255 49.9579 25.4148 50.0032 25.4148C50.0032 25.0954 49.3691 25.9624 49.3691 23.407C49.3691 22.8594 49.6862 22.4944 49.6862 22.038C49.6742 22.038 49.6627 22.0332 49.6542 22.0247C49.6457 22.0161 49.6409 22.0045 49.6409 21.9924C49.6409 21.6274 50.275 21.1254 50.275 20.5322C50.275 20.4865 50.3203 20.2584 50.4109 20.2584C50.3863 20.2338 50.3704 20.2017 50.3656 20.1671L50.4109 20.1215C50.4109 20.1336 50.4156 20.1452 50.4241 20.1538C50.4326 20.1623 50.4442 20.1671 50.4562 20.1671C50.5468 20.1671 50.9544 19.1632 51.1356 18.9807C51.1356 18.935 51.0903 18.935 51.0903 18.8894C51.0903 18.8894 51.2714 18.4787 52.132 17.6117C52.8567 16.8816 54.2155 15.9233 54.2155 15.832C54.2399 15.8568 54.2717 15.8729 54.3061 15.8777C54.3967 15.8777 54.2608 15.7864 54.4872 15.7864C54.4752 15.7864 54.4637 15.7816 54.4552 15.773C54.4467 15.7645 54.4419 15.7529 54.4419 15.7408C54.6231 15.7408 54.5778 15.7408 54.5778 15.6495C54.6122 15.6543 54.644 15.6704 54.6684 15.6952C54.7137 15.6952 54.8496 15.5126 54.8496 15.5126C54.8839 15.5174 54.9157 15.5335 54.9402 15.5583C54.9855 15.5583 56.0272 15.2388 56.7066 15.2388C57.2915 15.2325 57.8732 15.3251 58.4277 15.5126V15.467C58.473 15.467 58.9259 15.8777 59.3336 15.8777C59.3679 15.8729 59.3997 15.8568 59.4242 15.832C59.4242 15.9233 59.56 16.0146 59.6053 16.0146C59.6397 16.0098 59.6715 15.9937 59.6959 15.9689C59.7865 16.0602 60.0583 16.1515 60.1941 16.2884C60.4659 16.2884 60.7377 15.5126 61.1453 15.5126C61.2812 15.5126 62.8664 16.0602 63.1382 16.4709C63.4099 16.6534 63.9987 16.7903 63.9987 17.2467C63.9987 17.6117 63.0476 18.6613 63.0476 18.9807C63.0929 18.935 62.187 20.2128 62.187 20.7603C62.1918 20.7949 62.2077 20.827 62.2323 20.8516C62.0964 20.8516 62.0059 21.0798 61.8247 21.7186V21.673C61.8247 21.8099 60.6471 24.8216 60.6471 24.8216V24.9129L60.6018 25.3692C60.5898 25.3692 60.5782 25.3644 60.5698 25.3558C60.5613 25.3473 60.5565 25.3357 60.5565 25.3236C60.3753 25.8712 60.3753 26.4187 60.1941 26.9207C60.1941 26.9328 60.1989 26.9444 60.2074 26.953C60.2159 26.9615 60.2274 26.9663 60.2394 26.9663C60.2394 26.9207 60.5112 26.6925 60.5565 26.6469C60.5517 26.6123 60.5358 26.5803 60.5112 26.5556C60.5112 26.51 60.6924 26.4188 60.7377 26.3731C60.7131 26.3485 60.6972 26.3164 60.6924 26.2819C60.6924 26.2362 61.0547 26.0081 61.0094 26.0081C61.0094 25.9624 60.9188 25.9624 60.9188 25.9168C60.9188 25.8255 61.0547 25.5974 61.6435 25.0041C61.6189 24.9795 61.603 24.9475 61.5982 24.9129L61.6435 24.8673H61.5982C61.5982 24.776 62.3229 24.4566 62.3229 23.909C62.3229 23.6808 62.4588 23.7264 62.5494 23.6352L62.5041 23.5895C62.5041 23.042 62.5494 23.1789 63.6364 22.0837C63.6118 22.0591 63.5959 22.027 63.5911 21.9924L63.6364 21.9468C63.6364 21.9589 63.6412 21.9705 63.6497 21.979C63.6582 21.9876 63.6697 21.9924 63.6817 21.9924C63.9988 21.171 64.3611 21.5817 66.5805 18.4331C66.7163 18.4331 66.7616 17.7942 67.6222 17.7942C67.718 17.8216 67.8075 17.868 67.8852 17.9307C67.963 17.9934 68.0276 18.0711 68.0751 18.1593C68.0317 18.3701 68.0014 18.5835 67.9845 18.7981C67.9786 18.7981 67.9727 18.7993 67.9672 18.8016C67.9617 18.8039 67.9567 18.8073 67.9525 18.8115C67.9483 18.8158 67.945 18.8208 67.9427 18.8263C67.9404 18.8319 67.9392 18.8378 67.9392 18.8438ZM55.5743 16.2427C55.076 16.2427 54.8043 16.5165 53.9437 17.1554C53.7173 17.3835 53.6267 17.4292 53.5814 17.4292C53.5361 17.4292 53.5361 17.3835 53.4908 17.3835C53.4002 17.3835 53.219 17.6117 51.9508 19.5739C51.9055 19.5739 51.8602 19.5739 51.8602 19.6195L51.9055 19.6652C51.7856 19.7903 51.6793 19.928 51.5885 20.0759C51.5933 20.1104 51.6092 20.1425 51.6338 20.1671C51.6218 20.1671 51.6103 20.1623 51.6018 20.1538C51.5933 20.1452 51.5885 20.1336 51.5885 20.1215L51.5432 20.1671C51.548 20.2017 51.5639 20.2338 51.5885 20.2584H51.4979C51.4979 20.5322 51.4073 20.3497 51.4073 20.4409C51.4319 20.4655 51.4478 20.4976 51.4526 20.5322C51.4406 20.5322 51.4291 20.5274 51.4206 20.5188C51.4121 20.5103 51.4073 20.4986 51.4073 20.4865C51.3167 20.4865 51.362 20.6691 51.2714 20.7147C51.296 20.7393 51.3119 20.7714 51.3167 20.806C51.2714 20.806 51.2261 20.8972 51.2261 20.9429C51.2261 21.2623 50.4562 21.5361 50.4562 23.1332C50.4109 23.1332 51.1809 22.2206 51.1809 21.4448V21.4905C51.1356 21.4905 51.1356 21.4905 51.1356 21.4448C51.1356 21.0341 52.902 18.935 52.902 18.7525V18.6613C53.8531 17.703 54.759 17.0641 55.5743 16.2427ZM58.2466 19.7564C58.2466 19.7108 58.2466 19.7108 58.2013 19.6652C57.2501 20.806 56.1178 22.0837 55.1666 22.8594C55.1666 22.8594 53.1285 24.5022 53.1285 24.8216C53.1285 24.8337 53.1332 24.8453 53.1417 24.8539C53.1502 24.8624 53.1617 24.8673 53.1737 24.8673C53.6267 24.5022 54.0796 24.0002 54.4872 23.7264C55.7101 22.4944 54.2608 24.0002 56.9331 21.3079C56.9085 21.2833 56.8925 21.2513 56.8878 21.2167C56.8878 20.8516 58.156 20.304 58.156 19.8933C58.156 19.8477 58.2466 19.8021 58.2466 19.7564ZM59.1977 17.8855C57.7936 17.8855 57.8389 18.5244 57.1595 18.5244C57.2501 18.5244 55.7554 19.6652 55.6196 19.8933H55.7101C55.7101 19.939 55.2119 20.1215 55.2119 20.3953C55.2365 20.4199 55.2524 20.452 55.2572 20.4865C54.7137 21.0341 54.6684 21.0798 54.2608 22.1749C54.1702 22.1749 53.5361 22.9051 53.5361 23.5439C53.5361 23.556 53.5409 23.5676 53.5494 23.5762C53.5578 23.5847 53.5694 23.5895 53.5814 23.5895C54.1962 23.2079 54.7595 22.7477 55.2572 22.2206C55.2326 22.196 55.2167 22.1639 55.2119 22.1293C55.4136 21.9356 55.6252 21.7529 55.846 21.5817C55.8412 21.5471 55.8253 21.5151 55.8007 21.4905C55.8007 21.4784 55.8055 21.4667 55.814 21.4582C55.8225 21.4496 55.834 21.4448 55.846 21.4448C56.5707 20.5322 57.7483 19.6195 58.5183 18.6613C58.7804 18.4367 59.0092 18.1754 59.1977 17.8855ZM58.6995 21.5817C58.6995 21.5361 58.6995 21.5361 58.6542 21.4905C58.4381 21.786 58.298 22.1309 58.2466 22.4944C58.2466 22.5065 58.2513 22.5181 58.2598 22.5266C58.2683 22.5352 58.2798 22.54 58.2918 22.54C58.3824 22.2206 58.6089 21.9924 58.6089 21.8099C58.6089 21.7643 58.6995 21.673 58.6995 21.5817ZM67.2598 18.3875C67.1693 18.3875 66.9428 18.6156 66.8522 18.7069C65.6746 19.5283 66.3087 19.3001 65.267 20.4865C65.267 20.4865 65.3122 20.4865 65.3122 20.6234C65.3122 20.806 65.1311 21.2167 64.2705 22.0837C64.2705 22.2206 63.8629 22.5856 63.8629 22.6769L63.9082 22.7225L63.8629 22.7682C63.8509 22.7682 63.8393 22.7634 63.8308 22.7548C63.8224 22.7462 63.8176 22.7346 63.8176 22.7225C63.8176 22.7225 63.0929 23.5895 63.0929 23.7721C63.1175 23.7967 63.1334 23.8287 63.1382 23.8633C63.0023 23.8633 62.64 24.0002 62.2323 25.2779C62.1417 25.3692 62.0512 25.4148 62.0512 25.4605C62.0758 25.4851 62.0917 25.5171 62.0964 25.5517C62.0964 25.5396 62.0917 25.528 62.0832 25.5195C62.0747 25.5109 62.0632 25.5061 62.0512 25.5061C62.0059 25.5061 61.87 25.9168 61.5529 26.2362C61.5529 26.6925 60.1941 27.9703 60.1941 28.244C60.1941 28.2897 60.1941 28.3809 60.2394 28.3809C60.2394 28.3809 60.6924 28.4266 61.6888 26.51H61.6435C61.6435 26.51 61.9606 25.6886 62.2323 25.6886C62.2275 25.654 62.2116 25.622 62.187 25.5974C62.0964 25.5517 63.1835 24.0459 64.7234 21.7186C65.0858 21.3536 65.9916 20.2584 65.9916 19.8477C65.9916 19.8933 66.4899 19.2545 67.3051 18.4331C67.3051 18.3875 67.3051 18.3875 67.2598 18.3875Z" fill="#011627"/>
<path d="M85.1957 17.6117C85.1957 17.9767 81.5723 21.9468 81.5723 22.8138C81.5771 22.8484 81.593 22.8804 81.6176 22.905C81.4364 23.0419 80.9382 23.4526 80.9382 23.8633C80.9382 23.909 80.8476 24.3653 79.7153 25.5061C79.7153 25.4605 79.7153 25.4148 79.67 25.4148C79.6247 25.4148 79.0359 26.5556 78.7641 26.8294C78.7641 26.9207 78.8094 26.9207 78.8094 27.0119C78.8094 27.1032 78.6735 27.377 77.8582 28.244C77.36 29.2479 77.3147 29.0198 77.3147 29.111C77.2694 29.111 76.8165 30.7538 75.2766 30.7538C74.876 30.7188 74.4962 30.5593 74.1895 30.2975C74.0083 30.2975 72.106 29.0198 72.106 27.7877C72.1513 27.7877 72.1966 27.7877 72.1966 27.6964C72.1619 27.6931 72.1296 27.6768 72.106 27.6508C72.106 27.6052 72.1513 27.4683 72.1513 27.377C72.1513 27.2857 72.106 27.2401 72.0608 27.2401C72.106 27.2401 72.106 27.1945 72.106 27.1488C72.0865 27.0738 72.0714 26.9976 72.0608 26.9207L72.106 26.8751C72.106 26.8294 72.0608 26.8294 72.0608 26.6469C72.0608 26.6013 72.106 26.5556 72.106 26.51C72.0635 26.4075 72.0331 26.3003 72.0155 26.1906C72.0155 26.0993 72.106 26.0537 72.106 25.9168L72.0608 25.8711C72.0608 25.8255 72.106 25.8711 72.106 25.7799C72.0608 25.7799 72.0608 25.7342 72.0155 25.7342C72.0155 25.5973 72.3325 24.776 72.3325 24.1827L72.2872 24.1371C72.2872 24.0915 72.3778 24.0915 72.3778 24.0458C72.3778 24.0002 72.3325 23.9546 72.3325 23.909C72.574 23.3398 72.7414 22.7417 72.8307 22.1293C72.7854 22.0837 72.7854 21.9011 72.7854 21.9011L72.7401 21.9468V22.038C72.7854 22.038 72.9213 21.7642 73.2384 20.6234C73.646 20.3496 73.4648 19.0263 74.0536 18.7981C74.0536 18.7069 73.9178 18.7525 73.9178 18.7069C73.9178 18.7525 73.8272 19.0263 72.6043 20.304C72.625 20.2388 72.6556 20.1773 72.6949 20.1215C72.6949 20.1215 72.1966 20.8516 68.7544 25.2323C68.7544 25.2323 67.622 27.2857 66.8521 27.2857C66.8177 27.2809 66.7859 27.2649 66.7615 27.2401C66.7436 27.2574 66.7221 27.2704 66.6986 27.2783C66.6751 27.2862 66.6502 27.2887 66.6256 27.2857C66.2633 27.2857 65.2215 26.4187 65.1762 26.0537L65.1309 26.0993C65.0403 26.0993 65.0403 26.008 65.0403 25.9624C64.9951 25.9624 64.9498 26.0537 64.9498 26.0537C64.4515 25.5973 64.5874 25.4148 64.4063 25.1867C64.4428 25.1334 64.4589 25.0685 64.4515 25.0041C64.4395 25.0041 64.428 24.9993 64.4195 24.9908C64.411 24.9822 64.4063 24.9706 64.4063 24.9585C64.5421 24.8216 64.4063 24.6391 64.5421 24.5934C64.5421 24.5478 64.4515 24.5934 64.4515 24.5478C64.4515 24.1371 64.5421 23.6808 64.8592 22.6769C64.9045 22.6312 65.1762 21.0341 65.5386 20.5322C67.2144 17.3835 67.1691 13.1397 67.8485 13.1397C68.1028 13.0904 68.3642 13.0904 68.6185 13.1397C68.7544 13.1854 69.162 13.5048 69.6149 13.596C70.1625 13.9505 70.6139 14.4366 70.9284 15.0106C70.9284 15.5126 70.7926 15.5126 70.6567 15.832C70.2037 16.9272 70.1132 17.3379 69.8414 18.6612L69.8867 18.7069C69.7508 18.8894 69.3432 20.2584 69.2073 20.6234C69.2073 20.6691 69.2073 20.6691 69.2526 20.6691C69.2979 20.6691 70.5208 18.9807 70.9284 18.4787C72.7401 16.2427 73.5101 15.5126 76.59 13.0485C76.6806 12.9572 77.1789 12.2727 77.7224 12.2727C77.9941 12.2727 78.1753 12.2727 78.1753 12.5921C78.261 12.5092 78.3737 12.4606 78.4923 12.4552C78.9453 12.4552 79.0359 12.6378 79.8964 13.4591C79.8964 13.4712 79.8917 13.4829 79.8832 13.4914C79.8747 13.5 79.8631 13.5048 79.8511 13.5048C79.8511 13.6417 79.987 13.7786 79.987 13.9155C79.987 14.6912 79.5341 15.467 79.217 16.0602C79.217 16.1971 79.217 16.4709 78.7641 17.1554C78.6282 17.1554 78.1753 17.5204 77.043 20.9428C76.8618 21.4904 76.4542 21.6273 76.4542 22.54C76.0637 23.1715 75.845 23.8954 75.8201 24.6391C75.5499 25.5959 75.3531 26.5723 75.2313 27.5595C75.2313 27.6508 75.2766 27.6508 75.2766 27.6508C75.3671 27.6508 75.5483 27.1945 75.7748 27.1945C75.7748 27.1488 75.7295 27.1032 75.7295 27.0576C75.8201 27.0576 76.273 26.6925 76.273 26.4187C76.6353 26.2362 75.9559 26.8751 77.8582 24.4109C77.9488 24.3196 82.4781 17.5661 83.0216 17.5661C83.0669 17.5661 83.0669 17.6117 83.1122 17.6117C83.4293 17.6117 83.6557 16.9728 84.1993 16.9728L84.154 17.0185C84.154 17.0641 84.6069 17.0185 84.9692 17.2466C85.0647 17.3545 85.1413 17.4779 85.1957 17.6117ZM68.5279 15.2388V15.1932C67.8485 15.1932 67.1238 19.1632 66.2633 20.8516C66.2633 20.9428 66.218 20.8972 66.218 20.9428C65.9462 21.6273 65.5839 22.9963 65.5839 22.9507C65.5839 22.9963 65.6292 23.0876 65.6292 23.1332C65.5386 24.3196 65.2215 24.4109 65.2215 24.9585C65.2215 25.0041 65.2668 25.0498 65.3121 25.141C65.3121 24.274 65.5386 23.9546 65.5386 23.6808C65.6745 23.6808 65.5386 23.407 65.6745 23.407H65.6292C65.6292 23.2701 66.2633 22.3575 66.2633 21.3535C66.4444 20.7147 67.5768 18.0224 67.9391 17.201C67.9391 16.6534 68.5279 15.2844 68.5279 15.2388ZM76.7712 13.6417C76.4995 13.6417 75.3218 14.7825 74.733 15.3757C74.745 15.3757 74.7566 15.3709 74.7651 15.3623C74.7736 15.3538 74.7783 15.3422 74.7783 15.3301C74.7783 15.4213 73.4648 16.699 73.4648 16.7903C70.249 20.0302 69.7055 21.3079 68.392 22.5856C68.392 22.6769 68.392 22.8138 68.4826 22.8138C68.9355 22.3575 68.2561 22.6769 69.6602 21.3079C70.9737 19.437 70.9284 19.802 71.9249 18.6612C72.6949 17.7942 73.1931 17.1097 73.9631 16.3796C74.733 15.5582 76.6806 14.0524 76.7712 13.6417ZM76.4542 16.3796C76.4542 16.334 76.4089 16.2883 76.4089 16.2427C76.4089 16.1971 76.5448 16.1971 76.5448 16.0602C76.5448 16.0146 76.5448 16.0146 76.4995 15.9689C76.4089 16.2884 76.1824 16.4252 76.0012 16.7447C76.0465 16.7447 75.186 17.8399 75.186 18.1593C75.2106 18.1839 75.2265 18.2159 75.2313 18.2505C73.7366 21.3535 73.5101 22.6769 73.1025 25.2323C73.6913 21.3535 74.733 19.9389 74.8689 19.3457L74.9142 19.3913C75.0501 19.3913 74.8236 19.2545 75.0501 19.2545L75.0048 19.2088C75.0048 19.2088 75.0954 18.9807 75.1407 18.9807C75.1407 18.3418 76.273 16.5165 76.4542 16.3796ZM83.2481 18.0224C83.0216 18.0224 83.1575 18.1593 82.9763 18.1593C82.9763 18.2049 83.0216 18.2049 83.0216 18.2505C82.6593 18.6612 82.0705 19.2545 82.0705 19.3001H82.1611C82.1611 20.0758 79.3529 22.54 79.3529 23.0876C79.3529 23.3614 79.0359 22.7681 77.9941 24.9585C77.1789 26.1906 76.3636 27.1488 76.3636 27.1945C76.273 27.4226 75.4124 28.0159 75.2313 28.7003C75.6842 28.7003 74.9595 28.7916 76.7712 27.0576C76.7259 27.0576 76.7259 27.0576 76.7259 27.1032C76.9524 27.1032 77.1789 26.3275 77.4506 26.0537C77.4506 25.8255 78.8547 24.1827 78.8094 24.1827C79.1265 23.2701 79.4435 24.0002 80.3947 22.038C81.0288 21.3535 81.4817 19.8933 82.7499 18.6156C82.9693 18.4705 83.1424 18.2645 83.2481 18.0224Z" fill="#011627"/>
<path d="M103.268 2.14481C102.317 3.14872 98.512 9.12655 98.512 9.12655C98.6026 9.26345 97.7873 10.2674 97.7873 10.313C97.7921 10.3476 97.808 10.3796 97.8326 10.4043C97.0626 11.3625 96.972 11.7276 96.972 11.8645C97.0626 11.9558 97.1079 11.9101 97.1532 12.0014C96.8361 12.0014 96.5191 13.2791 96.5191 13.2335C96.5158 13.1984 96.4996 13.1659 96.4738 13.1422C96.5644 13.0509 95.4321 15.6976 95.2509 15.6976V15.652C95.2509 15.6976 95.2962 15.7432 95.3868 15.7889C95.2056 15.7889 94.8885 16.7015 94.8432 16.7015C94.8432 16.7928 94.8885 16.8384 94.8885 16.9297C94.8885 16.9297 94.2997 18.0249 94.2997 18.1161C94.2934 18.1077 94.2896 18.0976 94.2886 18.087C94.2877 18.0765 94.2897 18.0659 94.2944 18.0564C94.2991 18.0469 94.3063 18.0389 94.3153 18.0334C94.3242 18.0278 94.3345 18.0249 94.345 18.0249C94.3555 18.0249 94.3658 18.0278 94.3748 18.0334C94.3837 18.0389 94.391 18.0469 94.3957 18.0564C94.4004 18.0659 94.4024 18.0765 94.4014 18.087C94.4005 18.0976 94.3966 18.1077 94.3903 18.1161C94.0733 18.3443 93.3939 20.991 93.4845 21.0366C93.4845 21.0822 93.1221 22.9988 92.9409 22.9988C92.9442 22.9637 92.9604 22.9312 92.9862 22.9075C92.5333 25.3717 92.9409 23.1813 92.488 25.4629C92.4427 26.0105 92.3068 26.5125 92.3068 26.9232C92.3068 26.9688 92.3974 27.0144 92.3974 27.0144C92.171 27.2426 92.3068 27.6533 92.3068 27.9271C92.488 29.296 93.8468 26.1931 94.1639 26.1018C95.1603 25.0522 94.9338 24.5959 94.9791 24.5503C95.8397 23.5007 95.8397 22.9075 95.885 22.8163C96.8814 20.5346 96.7003 21.0822 96.7908 20.8997C97.201 20.1231 97.6865 19.3894 98.2402 18.7093C98.3308 18.3443 98.7384 17.5229 98.9649 17.5229H98.9196C99.3168 17.5709 99.6931 17.7289 100.007 17.9792C100.007 18.4812 99.282 19.3938 99.282 19.7133C98.5573 20.8541 97.9685 21.6298 98.0138 21.858C98.0138 22.0861 97.5155 22.6794 97.5155 22.8163H97.6061C96.8814 23.6833 96.3832 25.5998 96.3832 25.5086C96.4285 25.6911 95.6585 27.1513 95.6585 27.2426C95.2509 27.7902 95.1603 28.064 95.1603 28.2009C95.2056 28.2921 95.2509 28.3378 95.2509 28.3834C95.2509 28.4747 94.345 30.2543 94.345 30.4369C94.3903 30.9388 93.8015 31.0301 93.8015 31.0301C93.7562 31.0301 93.3939 31.3951 92.9409 31.3951C92.3974 31.3951 92.0351 30.9844 91.8086 30.8019C91.7842 30.8267 91.7524 30.8427 91.718 30.8475C91.6275 30.8475 90.5404 29.9805 90.5404 29.9805C90.3592 29.798 89.9516 29.2048 89.9063 29.2048C89.9111 29.1702 89.927 29.1381 89.9516 29.1135C89.6799 28.931 89.3175 27.9271 89.1816 27.5164C88.6381 25.2348 89.3175 23.6376 89.0458 23.4551C88.9552 23.4551 89.3175 21.9036 89.3175 21.8123C89.4081 21.7667 89.3175 21.5842 89.4081 21.4929C89.4081 21.4473 89.4081 21.4473 89.3628 21.4473C89.2722 21.4473 88.6381 22.6794 88.6381 22.725C88.6429 22.7596 88.6588 22.7916 88.6834 22.8163C88.5928 22.9988 88.4569 22.8163 88.2305 23.4095C88.0493 23.7289 88.1399 23.9571 87.7323 24.459C87.7569 24.4836 87.7728 24.5157 87.7775 24.5503C87.742 24.5475 87.7063 24.5546 87.6744 24.5707C87.6425 24.5867 87.6155 24.6112 87.5964 24.6415C87.6012 24.6761 87.6171 24.7082 87.6417 24.7328C87.5511 24.8241 87.4605 24.8241 87.4605 24.8697C87.4605 24.9153 87.5058 24.9153 87.5964 24.961C87.3692 25.1941 87.1714 25.4547 87.0076 25.7367C87.0076 25.7824 87.0529 25.7824 87.0529 25.828C86.917 25.8736 86.7811 25.9649 86.7811 26.0105C86.7859 26.0451 86.8018 26.0772 86.8264 26.1018C86.7358 26.1931 86.6452 26.1474 86.6452 26.2387C86.71 26.2592 86.7712 26.29 86.8264 26.3299C85.6941 27.1513 85.5582 27.9727 84.8788 27.9727C83.52 27.9727 81.5724 25.6455 81.4365 24.6872C81.2946 23.6899 81.2642 22.6796 81.346 21.6754C81.3116 21.6706 81.2798 21.6546 81.2554 21.6298C81.346 21.5385 81.2554 20.991 81.4365 20.991C81.4365 20.8997 81.346 20.9453 81.346 20.8997C81.32 20.4223 81.43 19.9473 81.663 19.5307C81.7989 18.3443 82.0706 16.9297 82.433 16.9297V16.9753C82.7953 15.652 82.7953 15.7432 82.9312 15.7432C83.1577 15.7432 83.8371 14.4199 85.0147 13.4616C85.1506 13.4616 86.3282 12.7315 86.3282 12.6402H86.2829C86.8764 12.3504 87.5257 12.1947 88.1852 12.1839C88.5022 12.1839 88.774 12.3665 88.9552 12.3665C88.9895 12.3616 89.0213 12.3456 89.0458 12.3208C90.2687 13.3704 90.4951 13.0966 90.8575 13.2791C91.0386 13.416 91.2651 13.6442 91.4916 13.8267C91.8992 13.6898 92.0351 12.7771 92.0804 12.7771V12.8228C92.8956 11.8189 92.9409 11.0431 92.9409 11.0431V11.0887C92.8051 10.5412 93.7109 9.67414 93.8015 9.58288C94.028 9.03529 96.1567 4.47206 97.6514 2.69239C98.5573 0.730204 98.9649 1.004 98.9649 0.730205C99.9613 0.273881 99.6896 0.182616 100.052 0.182616C100.143 0.182616 100.505 0.547676 101.003 0.547676C101.456 1.04963 103.404 1.36906 103.268 2.14481ZM84.1088 16.4734C84.1088 16.1539 84.7429 15.5151 84.7882 15.5151L84.7429 15.5607C86.147 13.6898 86.5093 13.5529 86.6452 13.5529C86.6905 13.5529 86.6905 13.5985 86.7358 13.5985C86.7811 13.5985 86.8264 13.5529 86.917 13.4616C87.0918 13.3734 87.2461 13.249 87.3699 13.0966C87.3699 13.0509 87.3699 13.0509 87.3246 13.0509C84.2447 14.3286 85.2864 14.9219 84.29 15.4694C84.29 15.652 84.0635 15.7432 84.1541 15.8345L84.2447 15.9258C83.7012 15.9258 83.6559 16.8384 83.6559 16.8384V16.7472C83.203 17.3404 83.1124 17.6142 83.1124 17.7967L83.203 17.888C83.203 19.0744 82.6595 19.1657 82.6595 19.2113C82.2971 20.8541 82.1159 20.1696 82.2971 21.1279C82.294 21.1526 82.2964 21.1778 82.3043 21.2015C82.3121 21.2252 82.3251 21.2468 82.3424 21.2648C82.3877 20.3521 82.7047 19.5307 83.0218 18.755C83.7012 16.8818 84.1088 16.5623 84.1088 16.4711V16.4734ZM86.1017 22.9075C86.1017 22.8163 86.0111 22.8163 86.0111 22.725C86.0111 22.6337 86.147 22.4056 86.7358 21.6754C87.2793 20.991 87.5058 20.4434 87.5058 20.3521H87.4605C87.9585 19.3198 88.5823 18.3541 89.3175 17.4773C89.5408 17.1747 89.7095 16.8349 89.8157 16.4734C90.1007 16.1293 90.3581 15.7631 90.5857 15.3782C90.5857 15.2413 90.4498 15.0588 90.4045 14.6937C88.6381 14.6937 88.8193 15.4694 88.5928 15.4694C87.9587 15.4694 87.8228 16.2452 87.7775 16.2452V16.1996C86.917 16.9297 86.6905 17.7967 86.5999 17.7967C86.5546 17.7967 86.5546 17.7967 86.5546 17.7511L86.5094 17.7967L86.5999 17.888C85.7394 18.8919 85.6035 19.3482 85.6035 19.4851C85.6012 19.5348 85.6174 19.5836 85.6488 19.622C85.6488 20.1696 85.06 21.2648 85.06 21.4017V21.356C85.06 21.4017 85.1053 21.4473 85.1053 21.4929C84.9838 21.6748 84.8921 21.8751 84.8335 22.0861C84.8383 22.1207 84.8542 22.1528 84.8788 22.1774C84.6523 22.8619 84.3353 24.1852 84.5165 25.0979C84.6523 25.0522 84.5618 24.9153 84.6523 24.8241C85.8752 23.4072 86.1017 23.0421 86.1017 22.9052V22.9075ZM85.6488 24.7328C88.4569 19.7589 87.7323 20.7628 88.8646 19.2569C88.6834 18.3899 89.091 18.5725 90.0875 17.386C90.3394 17.0376 90.5379 16.653 90.6763 16.2452C90.4045 16.2452 89.9969 16.8841 89.9969 16.9753V17.021L90.0875 16.9297C89.8559 17.2903 89.6587 17.6723 89.4987 18.0705C87.9587 19.9414 89.6346 17.9336 87.6417 21.1735C86.7358 22.1318 86.6452 22.4056 86.6905 22.5425C86.6905 22.5881 86.7358 22.5881 86.7358 22.6337C86.7358 22.725 86.6905 22.8163 86.4641 23.0444C86.147 24.7784 85.377 24.459 85.377 24.7328C85.2412 25.2804 85.1506 24.8697 84.6976 25.828C84.6523 25.8736 84.5165 25.9193 84.5165 26.0105C84.5165 26.0562 84.5165 26.0562 84.5618 26.1018C84.5618 25.9649 84.6976 26.0105 84.7429 25.9649C85.1506 25.7344 85.6941 24.6849 85.6488 24.7305V24.7328ZM98.5573 3.23998C98.5573 3.22788 98.5525 3.21627 98.544 3.20772C98.5355 3.19916 98.524 3.19435 98.512 3.19435C96.5191 5.01964 95.2962 8.6246 94.5715 9.53724C94.4809 9.62851 93.258 12.4577 93.258 12.549C93.258 12.549 93.9374 11.5907 93.9827 11.5907C94.2544 11.1344 95.2509 9.03529 95.5226 8.6246C96.1114 6.84494 98.5573 3.23998 98.5573 3.23998ZM94.9791 25.7367C94.9791 25.7488 94.9839 25.7604 94.9924 25.769C95.0009 25.7775 95.0124 25.7824 95.0244 25.7824C94.9998 25.7577 94.9839 25.7257 94.9791 25.6911C94.9338 25.6455 94.9791 25.5998 95.0697 25.5998C95.0451 25.5752 95.0292 25.5432 95.0244 25.5086C95.8397 24.6415 95.3868 24.6416 95.7038 24.2309C95.7038 24.094 97.8326 20.5346 98.2402 19.622V19.4851C98.1949 19.5307 97.1532 21.5386 96.8814 21.5386C96.906 21.5632 96.9219 21.5952 96.9267 21.6298C96.5191 22.0861 96.1114 22.9988 96.1567 23.0901C95.8397 24.0483 94.4809 25.9193 94.6168 26.3756C94.6168 26.5125 94.345 26.7406 94.345 26.7406C94.345 26.7406 94.2544 26.8319 94.2544 26.8775C93.575 27.7445 93.5298 27.9727 93.5298 28.1096C93.5298 28.2009 93.6656 28.1552 93.6656 28.2009C93.6687 28.2257 93.6663 28.2508 93.6585 28.2745C93.6506 28.2982 93.6376 28.3198 93.6203 28.3378C94.798 26.3277 94.798 25.917 94.9791 25.7344V25.7367ZM98.6026 18.7093C98.4214 18.7093 98.3308 19.3938 98.3308 19.3938C98.3895 19.1603 98.4976 18.9424 98.6478 18.755C98.6478 18.7071 98.6479 18.7071 98.6026 18.7071V18.7093Z" fill="#011627"/>
<path d="M111.645 14.4175C112.415 14.4175 114 15.0107 114 15.604C114 16.1972 110.829 16.471 110.286 16.471C109.923 16.471 108.519 16.7448 107.795 16.7448C107.749 16.7904 107.749 16.7904 107.749 16.836C107.749 17.2011 108.021 17.6118 108.021 18.9351C108.021 20.441 107.84 20.4866 107.84 20.6235C107.84 20.7148 107.885 20.8061 107.885 20.8973C107.885 21.0798 107.297 22.3119 107.297 22.4944C107.297 22.5066 107.301 22.5182 107.31 22.5267C107.318 22.5353 107.33 22.5401 107.342 22.5401C107.33 22.5401 107.318 22.5353 107.31 22.5267C107.301 22.5182 107.297 22.5066 107.297 22.4944C106.934 23.1789 106.934 23.2246 106.934 23.4071C106.934 23.4527 106.979 23.4984 106.979 23.544C106.209 24.3197 106.3 24.5023 106.3 24.7304C106.3 24.7304 105.802 25.4606 105.757 25.5518C105.761 25.5864 105.777 25.6185 105.802 25.6431C105.802 25.6552 105.797 25.6668 105.789 25.6753C105.78 25.6839 105.769 25.6887 105.757 25.6887L105.711 25.6431C104.624 28.1072 104.217 27.7422 104.217 28.0616C104.171 28.0616 104.171 28.016 104.126 28.016C104.126 29.248 101.816 30.8452 101.771 30.8452C101.806 30.8418 101.838 30.8256 101.861 30.7995H101.816C101.725 30.7995 101.363 31.5753 99.8685 31.5753C98.555 31.5753 98.1473 30.617 97.5585 29.9325C97.5585 29.8869 97.3774 29.8869 97.3774 29.7956C97.3821 29.761 97.3981 29.729 97.4227 29.7044C96.8791 29.1568 96.1092 28.2441 96.1545 28.1529C96.1997 28.1529 96.245 28.0616 96.245 28.016C96.0639 27.8791 95.8374 26.9664 95.8374 26.0538C95.8374 23.2702 96.698 23.042 96.698 22.4488C96.698 22.3575 96.8338 22.3119 96.8791 22.2663C96.8791 22.2207 96.8338 22.2207 96.8338 22.175C96.8338 22.175 97.1509 21.4905 97.1509 21.5362C97.1509 21.4905 97.1056 21.4449 97.1056 21.3993C97.1056 21.0342 97.785 20.3954 97.7397 20.3954C98.2832 18.0681 100.729 15.6496 100.774 15.6496C101.227 14.737 102.45 13.8699 102.586 13.8243C103.311 13.0942 103.582 13.1855 103.582 13.0942C103.794 12.9433 104.048 12.8635 104.307 12.866C106.345 12.866 105.439 13.8243 106.436 13.8243C106.436 13.8699 106.391 13.9156 106.391 13.9612C106.515 14.1375 106.651 14.3052 106.798 14.4632C107.208 14.2373 111.103 14.4175 111.645 14.4175ZM100.774 17.6118C101.725 16.6535 101.952 16.3797 101.952 16.2884C101.952 16.2428 101.861 16.2428 101.861 16.2428C101.861 16.1972 101.861 16.1972 101.952 16.1059C103.673 14.3719 104.035 14.0068 104.081 14.0068C104.081 14.0525 103.9 14.235 103.9 14.235C103.9 14.1894 104.534 13.5505 104.67 13.5505H104.715C104.715 13.5049 104.67 13.5049 104.624 13.5049C104.262 13.5049 103.945 13.9156 103.854 13.9156V13.8699C103.492 13.9612 103.265 14.3263 103.22 14.3263V14.2806C103.22 14.1894 101.046 17.4293 100.638 17.4293C100.321 18.1594 100.14 18.2506 100.004 18.3875C98.6003 20.7148 98.7814 20.8973 98.4191 21.308C98.4191 21.3993 98.2379 21.4905 98.2379 21.5362C98.2379 21.5818 98.2832 21.6731 98.2832 21.7187C97.865 22.1685 97.6097 22.7473 97.5585 23.3615V23.3158C97.5585 23.3615 97.5585 23.4071 97.6491 23.4527C98.3983 21.4869 99.4035 19.6301 100.638 17.9312C100.641 17.7943 100.777 17.7943 100.777 17.6118H100.774ZM99.9138 28.5635C99.9591 28.5635 100.004 28.6092 100.05 28.6092C100.684 28.6092 101.137 27.6053 101.091 27.6509C102.405 26.3276 102.043 26.3732 102.269 26.145C103.492 24.3197 103.809 23.9547 103.854 23.9547C103.832 24.0337 103.802 24.1102 103.764 24.1828L103.718 24.1372C103.718 23.7265 104.67 22.7682 104.67 22.5401C104.67 22.528 104.665 22.5164 104.656 22.5078C104.648 22.4993 104.636 22.4944 104.624 22.4944C104.624 22.0381 105.168 21.3993 105.168 21.3536C105.077 21.3536 105.168 21.2624 105.077 21.2624C104.579 22.4488 102.677 24.8217 102.677 25.0955C102.314 25.8256 101.997 25.8256 101.997 25.9625C102.022 25.9871 102.038 26.0192 102.043 26.0538C99.8232 28.2898 99.5514 28.5179 99.5514 28.6092C99.5514 28.6092 99.5967 28.7461 99.642 28.7461C99.6873 28.7461 99.7779 28.6548 99.8232 28.6548C99.916 28.6548 99.8707 28.6092 99.916 28.5635H99.9138ZM100.684 26.3276C100.684 26.0994 101.273 25.5062 101.725 25.0499C101.725 25.0042 101.68 24.9586 101.68 24.913C101.68 24.6848 103.311 23.0877 103.311 22.8139C103.311 22.7682 103.311 22.7682 103.265 22.7682C103.265 22.6313 103.447 22.4944 103.537 22.4488C103.537 22.4032 103.492 22.3576 103.492 22.3119C103.492 21.6274 104.217 21.4449 104.217 21.0798C104.851 19.5283 105.168 18.5244 105.168 18.3875C105.168 18.1137 105.258 17.7487 105.258 17.4293C105.258 17.2467 105.213 16.7448 105.122 16.7448C104.715 16.7448 103.9 18.707 103.764 18.707V18.6613C103.764 19.1177 102.994 19.7109 102.994 19.7109L103.039 19.6652V19.7565C102.922 20.0303 102.753 20.2784 102.541 20.4866C102.541 20.5323 102.586 20.5779 102.586 20.6235C102.395 20.8483 102.228 21.093 102.088 21.3536C102.076 21.3536 102.064 21.3488 102.056 21.3403C102.047 21.3317 102.043 21.3201 102.043 21.308L101.997 21.3536C101.997 21.3993 102.043 21.4449 102.043 21.4905C101.091 22.4488 101.001 22.9508 101.001 23.2246V23.4071C101.001 24.0459 99.9591 25.78 100.004 25.8256C100.05 25.8256 100.05 25.9169 100.05 25.9625C100.05 26.6014 99.6873 26.6926 99.6873 27.2858C99.6873 27.3771 99.7326 27.4227 99.7779 27.4227C100.033 27.0349 100.338 26.6821 100.684 26.3732V26.3276Z" fill="#011627"/>
</svg>
