<svg width="18" height="19" viewBox="0 0 18 19" fill="none" xmlns="http://www.w3.org/2000/svg">
<path d="M15.298 14.0212C13.9018 15.99 11.6016 17.2857 9 17.2857C6.39844 17.2857 4.09821 15.99 2.70201 14.0212C2.96317 12.1429 3.72656 10.4754 5.43415 10.2444C6.31808 11.2087 7.59375 11.8214 9 11.8214C10.4062 11.8214 11.6819 11.2087 12.5658 10.2444C14.2734 10.4754 15.0368 12.1429 15.298 14.0212ZM12.8571 7C12.8571 9.12946 11.1295 10.8571 9 10.8571C6.87054 10.8571 5.14286 9.12946 5.14286 7C5.14286 4.87054 6.87054 3.14286 9 3.14286C11.1295 3.14286 12.8571 4.87054 12.8571 7ZM18 9.57143C18 4.59933 13.9721 0.571427 9 0.571427C4.0279 0.571427 0 4.59933 0 9.57143C0 14.5335 4.0279 18.5714 9 18.5714C13.9821 18.5714 18 14.5234 18 9.57143Z" fill="#A9C4FF"/>
</svg>
